<svg xmlns="http://www.w3.org/2000/svg" width="47.88" height="47.768" viewBox="0 0 47.88 47.768">
  <g id="play-circle-outline" transform="translate(0 -1.32)">
    <path id="Path_7" data-name="Path 7" d="M19.174,35.969V14.439L33.527,25.2ZM23.94,1.32A23.069,23.069,0,0,1,40.872,8.328,23,23,0,0,1,47.88,25.2,23,23,0,0,1,40.872,42.08,23.069,23.069,0,0,1,23.94,49.088,23.069,23.069,0,0,1,7.008,42.08,23,23,0,0,1,0,25.2,23,23,0,0,1,7.008,8.328,23.069,23.069,0,0,1,23.94,1.32Zm0,43.058a18.416,18.416,0,0,0,13.512-5.607A18.481,18.481,0,0,0,43.058,25.2a18.481,18.481,0,0,0-5.607-13.568A18.416,18.416,0,0,0,23.94,6.03a18.416,18.416,0,0,0-13.512,5.607A18.481,18.481,0,0,0,4.822,25.2a18.481,18.481,0,0,0,5.607,13.568A18.416,18.416,0,0,0,23.94,44.378Z" fill="#fff"/>
  </g>
</svg>
