<svg id="youtube" xmlns="http://www.w3.org/2000/svg" width="49.573" height="37.18" viewBox="0 0 49.573 37.18">
  <path id="Path_8" data-name="Path 8" d="M44.926,35.631A141.592,141.592,0,0,1,24.787,37.18q-4.163,0-9.2-.387T7.6,36.018l-2.953-.387a3.586,3.586,0,0,1-2.3-1.815A11.387,11.387,0,0,1,.9,30.015q-.46-2.227-.678-4.163A31.832,31.832,0,0,1,0,22.318V14.862Q0,2.517,4.647,1.549A141.592,141.592,0,0,1,24.787,0q4.163,0,9.2.387t7.988.775l2.953.387a3.422,3.422,0,0,1,2.4,1.767A11.059,11.059,0,0,1,48.75,7.165q.436,2.275.629,4.163a34.754,34.754,0,0,1,.194,3.534v7.455q0,1.743-.145,3.534a40.346,40.346,0,0,1-.581,4.115,10.545,10.545,0,0,1-1.452,3.873A3.69,3.69,0,0,1,44.926,35.631ZM33.549,17.38,20.865,9.634a1.444,1.444,0,0,0-1.4-.266q-.871.218-.871.7V27.11q0,.533.871.726a1.489,1.489,0,0,0,1.4-.29L33.549,19.8a1.642,1.642,0,0,0,0-2.421Z" transform="translate(0)" fill="red"/>
</svg>
